HIERARCHY
ROOT hip
{
	OFFSET 0.000000 0.000000 0.000000 
	CHANNELS 6 Xposition Yposition Zposition Xrotation Zrotation Yrotation
	JOINT abdomen
	{
		OFFSET 0.000000 3.402643 0.000000 
		CHANNELS 3 Xrotation Zrotation Yrotation
		JOINT chest
		{
			OFFSET 0.000000 8.438565 -0.680529 
			CHANNELS 3 Xrotation Zrotation Yrotation
			JOINT neck
			{
				OFFSET 0.000000 10.207942 -0.272212 
				CHANNELS 3 Xrotation Zrotation Yrotation
				JOINT head
				{
					OFFSET 0.000000 3.130431 0.000000 
					CHANNELS 3 Xrotation Zrotation Yrotation
					End Site
					{
						OFFSET 0.000000 3.130435 0.000000 
					}
				}
			}
			JOINT lCollar
			{
				OFFSET 3.470700 6.669187 -0.816635 
				CHANNELS 3 Yrotation Zrotation Xrotation
				JOINT lShldr
				{
					OFFSET 3.198488 0.000000 0.000000 
					CHANNELS 3 Zrotation Yrotation Xrotation
					JOINT lForeArm
					{
						OFFSET 10.139888 0.000000 0.000000 
						CHANNELS 3 Yrotation Zrotation Xrotation
						JOINT lHand
						{
							OFFSET 8.370511 0.000000 0.000000 
							CHANNELS 3 Zrotation Yrotation Xrotation
							End Site
							{
								OFFSET 4.083176 0.000000 0.000000 
							}
						}
					}
				}
			}
			JOINT rCollar
			{
				OFFSET -3.470700 6.669187 -0.816635 
				CHANNELS 3 Yrotation Zrotation Xrotation
				JOINT rShldr
				{
					OFFSET -3.198488 0.000000 0.000000 
					CHANNELS 3 Zrotation Yrotation Xrotation
					JOINT rForeArm
					{
						OFFSET -10.139888 0.000000 0.000000 
						CHANNELS 3 Yrotation Zrotation Xrotation
						JOINT rHand
						{
							OFFSET -8.370511 0.000000 0.000000 
							CHANNELS 3 Zrotation Yrotation Xrotation
							End Site
							{
								OFFSET -4.083176 0.000000 0.000000 
							}
						}
					}
				}
			}
		}
	}
	JOINT lThigh
	{
		OFFSET 5.308129 -1.633274 1.361059 
		CHANNELS 3 Xrotation Zrotation Yrotation
		JOINT lShin
		{
			OFFSET -2.041588 -20.007561 0.000000 
			CHANNELS 3 Xrotation Zrotation Yrotation
			JOINT lFoot
			{
				OFFSET 0.000000 -19.190928 -1.224953 
				CHANNELS 3 Xrotation Yrotation Zrotation
				End Site
				{
					OFFSET 0.000000 -2.449906 4.627600 
				}
			}
		}
	}
	JOINT rThigh
	{
		OFFSET -5.308129 -1.633274 1.361059 
		CHANNELS 3 Xrotation Zrotation Yrotation
		JOINT rShin
		{
			OFFSET 2.041588 -20.007561 0.000000 
			CHANNELS 3 Xrotation Zrotation Yrotation
			JOINT rFoot
			{
				OFFSET 0.000000 -19.190928 -1.224953 
				CHANNELS 3 Xrotation Yrotation Zrotation
				End Site
				{
					OFFSET 0.000000 -2.449906 4.627600 
				}
			}
		}
	}
}
MOTION
Frames: 14
Frame Time: 0.033333
-0.231754 52.789959 0.356836 4.570313 2.099610 -43.778938 42.263405 -13.537284 -3.164798 -11.679688 10.966796 7.666017 51.553619 8.070152 2.616707 -76.933594 -6.630859 4.598482 2.000000 -2.000000 0.000000 -43.779297 6.640625 -39.178558 -49.936840 -1.549894 -1.803156 -35.842503 47.892651 -26.889578 -2.000000 2.000000 0.000000 46.933594 -15.488282 -32.158203 49.939556 1.361573 -2.264456 37.638596 -40.254719 -26.661366 -17.035967 9.069464 0.193384 14.452616 -5.595826 -1.342209 4.711112 14.207408 -13.681643 2.936676 -5.979751 -0.258487 11.666880 5.552242 0.968321 2.310021 -17.495588 -5.574284 
-0.441949 52.742516 0.737966 5.087891 2.451172 -42.148018 42.319031 -13.798974 -3.416281 -11.679688 10.966796 7.666017 51.553619 8.070152 2.616707 -76.630859 -5.712890 3.778324 2.000000 -2.000000 0.000000 -43.808598 7.529296 -39.335938 -49.922359 -1.549382 -1.627168 -36.641251 48.627113 -27.416862 -2.000000 2.000000 0.000000 47.031250 -14.882812 -33.273991 49.763775 1.361573 -2.264456 37.700195 -40.599323 -27.332760 -17.882687 8.648470 -0.848127 15.494605 -5.670107 -1.987686 4.052687 13.930614 -14.002942 3.012727 -5.870863 -1.253377 11.828793 5.611534 0.793105 2.309929 -17.872458 -5.628778 
-0.646762 52.710876 1.122855 5.449219 2.792969 -40.507339 42.134373 -14.028996 -3.361529 -11.679688 10.966796 7.666017 51.553619 8.070152 2.616707 -76.308594 -4.628905 3.076172 2.000000 -2.000000 0.000000 -44.140625 7.978516 -39.852161 -50.098145 -1.549382 -1.627168 -36.755882 48.797787 -27.566576 -2.000000 2.000000 0.000000 47.451172 -15.126953 -33.818363 49.763775 1.361573 -2.264456 37.967907 -40.805233 -27.967819 -18.411251 7.868333 -2.167794 16.026560 -5.241661 -2.138791 3.364054 13.748813 -14.118816 3.297228 -5.706918 -3.027287 11.478292 5.552887 1.088598 2.294348 -18.453197 -5.482666 
-0.835128 52.655525 1.518272 5.976563 2.968750 -39.257813 41.991051 -14.154121 -3.473611 -11.845704 11.162109 7.685548 51.553619 8.070152 2.616707 -76.015625 -3.691406 2.246094 2.000000 -2.000000 0.000000 -44.052734 8.095704 -39.951168 -50.098145 -1.549382 -1.627168 -36.794037 48.574265 -27.443962 -2.000000 2.000000 0.000000 47.929684 -15.800780 -34.101559 49.763775 1.361573 -2.264456 38.287521 -40.798103 -28.243237 -19.255758 7.860541 -3.939747 16.732145 -5.623302 -2.101352 3.048212 13.859730 -14.360285 3.553694 -5.614371 -4.087975 11.125442 5.561752 1.058748 2.806540 -18.369606 -5.462656 
-1.022921 52.647614 1.928347 6.142578 3.125000 -38.173294 41.826252 -14.380674 -3.430525 -11.845704 11.162109 7.861328 51.553619 8.070152 2.616707 -75.742188 -2.910156 1.523437 2.000000 -2.000000 0.000000 -43.945313 7.314454 -40.086647 -50.098145 -1.549382 -1.627168 -37.542912 48.065144 -28.493744 -2.000000 2.000000 0.000000 48.447262 -16.874998 -34.121094 50.092873 1.541127 -2.156226 38.018669 -40.748531 -28.148329 -19.528378 7.391462 -4.764538 17.448282 -5.796848 -2.207113 2.641940 13.778785 -14.127418 3.774714 -5.501215 -5.157526 11.147590 5.560584 1.070068 3.335237 -18.326305 -5.261126 
-1.227201 52.663433 2.333613 6.328125 2.792969 -37.479992 41.686932 -14.750477 -3.504149 -11.845704 11.162109 7.861328 51.553619 8.070152 2.616707 -75.673828 -2.285156 0.888672 2.000000 -2.000000 0.000000 -44.160156 7.128906 -40.117184 -50.121010 -1.419739 -1.752099 -38.037277 48.035557 -28.766657 -2.000000 2.000000 0.000000 48.876953 -17.500000 -33.997074 49.939556 1.361573 -2.264456 37.751564 -40.532856 -27.526415 -18.886515 7.282077 -5.569491 17.068110 -5.601243 -2.147224 2.317782 13.821935 -14.789789 4.370266 -5.395084 -6.219185 11.500005 5.553480 1.080587 4.361799 -18.003958 -5.421872 
-1.458362 52.702976 2.719722 6.142578 2.431641 -37.187088 41.536701 -14.897157 -3.616562 -11.845704 11.162109 7.861328 51.553619 8.070152 2.616707 -75.810555 -1.943359 0.214844 2.000000 -2.000000 0.000000 -44.121094 7.314454 -40.809299 -50.098145 -1.549382 -1.627168 -37.885319 47.755695 -28.198185 -2.000000 2.000000 0.000000 49.296875 -17.177734 -34.163040 49.916634 1.491246 -2.139570 38.078915 -40.829098 -27.543951 -17.848564 7.294031 -5.719685 16.734789 -5.614231 -2.109898 1.790671 13.846738 -14.679412 4.730067 -5.374087 -6.416595 11.855219 5.542992 0.973912 6.150931 -17.732740 -6.045558 
-1.692827 52.797867 3.093284 5.976563 1.904297 -37.070313 41.353989 -15.130457 -3.553020 -11.845704 11.162109 7.861328 51.553619 8.070152 2.616707 -76.025398 -2.236328 0.019531 2.000000 -2.000000 0.000000 -44.580078 7.275391 -41.072983 -49.945232 -1.419739 -1.752099 -37.727169 47.651691 -27.846773 -2.000000 2.000000 0.000000 49.853516 -16.357424 -34.221500 49.917343 1.551445 -2.165404 37.750664 -40.826168 -27.268890 -16.784550 7.665034 -5.881937 16.225500 -5.623614 -2.076015 1.758015 13.591568 -14.570552 4.382098 -5.358819 -6.392526 13.093899 5.584002 0.949501 9.155869 -17.238508 -6.232439 
-1.913066 52.932297 3.448090 5.976563 1.386719 -37.138672 41.397137 -15.252055 -3.676987 -11.835938 11.328126 7.921841 51.553619 8.070152 2.616707 -76.601563 -2.656250 -0.273890 2.000000 -2.000000 0.000000 -44.716797 7.539063 -41.611328 -49.922359 -1.549382 -1.627168 -38.120049 47.725777 -27.812624 -2.000000 2.000000 0.000000 49.853519 -15.839844 -33.635483 49.764042 1.362140 -2.274201 37.625866 -41.007145 -26.690287 -15.488671 7.984452 -5.506690 15.678931 -5.630507 -2.203760 2.008246 13.097916 -14.585932 3.855539 -5.359248 -6.384097 14.679456 5.542684 1.094205 12.607405 -16.238615 -6.415301 
-2.154904 53.011391 3.793603 5.791016 0.869141 -37.353512 41.224304 -15.478465 -3.631857 -11.835938 11.328126 7.921841 51.553619 8.070152 2.616707 -77.363289 -3.212890 -0.273438 2.000000 -2.000000 0.000000 -45.224613 7.880859 -42.070316 -50.112625 -1.549894 -1.803156 -37.706150 47.787819 -27.292957 -2.000000 2.000000 0.000000 49.843750 -15.859373 -32.939453 49.764042 1.362140 -2.274201 38.027569 -41.169353 -27.102467 -14.183143 8.297804 -4.974929 14.967885 -5.614219 -2.440802 2.066575 13.067206 -14.621774 3.212175 -5.721824 -6.560439 16.594366 5.406428 1.779603 16.618320 -13.575113 -8.527023 
-2.390778 53.272350 4.150887 5.625000 0.166016 -37.431614 41.074203 -15.619388 -3.729309 -11.835938 11.328126 7.921841 51.553619 8.070152 2.616707 -78.203125 -4.052734 -0.283203 2.000000 -2.000000 0.000000 -45.761723 8.740234 -42.880859 -50.449429 -1.558560 -1.616852 -38.311058 48.193081 -27.525026 -2.000000 2.000000 0.000000 49.707031 -15.869141 -31.484379 49.406307 1.192522 -2.049383 37.767406 -40.856148 -27.033857 -12.853584 8.823693 -4.927434 14.116673 -5.688951 -1.858237 1.948217 12.741001 -14.720487 -1.396347 -7.020341 -5.908949 22.910849 4.996162 2.216010 29.449747 -7.477285 -8.785186 
-2.654080 53.367237 4.503603 5.263672 -0.537109 -37.871227 40.925247 -15.769392 -3.832851 -11.835938 11.328126 7.921841 51.553619 8.070152 2.616707 -79.003906 -4.892578 -0.274270 2.000000 -2.000000 0.000000 -45.624996 9.130859 -42.976963 -50.660717 -1.249384 -1.850075 -37.849579 48.165154 -27.397654 -2.000000 2.000000 0.000000 49.267574 -16.533201 -31.289063 49.728424 1.661614 -2.041653 38.666046 -40.891163 -27.787399 -11.190663 8.954560 -4.524452 13.369284 -5.371080 -1.702982 2.183205 12.724481 -14.406442 -2.255007 -7.406767 -5.500142 23.790257 4.968910 2.440423 38.447113 -3.750884 -11.272275 
-2.923806 53.406780 4.858665 5.087891 -1.240234 -38.095917 40.938599 -15.992302 -3.799694 -11.816406 11.484375 7.968750 51.553619 8.070152 2.616707 -79.882813 -5.878906 -0.147485 2.000000 -2.000000 0.000000 -44.785152 8.847656 -42.352013 -50.662109 -1.389287 -1.900562 -37.145706 48.577999 -26.793348 -2.000000 2.000000 0.000000 48.652344 -16.406252 -30.957033 49.764042 1.362140 -2.274201 38.306694 -40.515278 -27.015717 -9.595737 9.410830 -3.792635 12.489492 -5.351192 -1.965940 1.671781 12.444219 -14.014309 -2.449606 -7.912663 -5.680906 22.901442 4.998052 2.186357 48.154312 -0.813266 -14.788821 
-3.223088 53.343513 5.220541 4.746094 -1.943359 -38.330078 40.789867 -16.138840 -3.909806 -11.816406 11.484375 7.968750 51.553619 8.070152 2.616707 -80.537109 -6.718749 -0.097656 2.000000 -2.000000 0.000000 -43.271481 8.095703 -41.024014 -50.652687 -1.378513 -1.548921 -37.043922 48.681683 -27.626299 -2.000000 2.000000 0.000000 48.193359 -16.298828 -31.838675 49.764042 1.362140 -2.274201 37.747692 -40.024242 -26.117426 -7.971752 9.885397 -3.351096 11.785831 -5.350882 -1.886580 1.444769 12.650673 -14.269297 -4.597709 -8.295962 -7.134321 26.070488 4.852714 2.656735 51.268456 -1.501686 -16.364361 
